<svg xmlns="http://www.w3.org/2000/svg" xmlns:xlink="http://www.w3.org/1999/xlink" version="1.1" id="Layer_1" x="0px" y="0px" width="100px" height="100px" viewBox="0 0 100 100" enable-background="new 0 0 100 100" xml:space="preserve">
<g id="Captions">
</g>
<g id="Your_Icon">
	<g>
		<path d="M79.589,65.186H6.636V31.37h72.953v9.394l5.636-5.636V31.37c0,0,0-5.636-5.636-5.636c-5.695,0-72.953,0-72.953,0    S1,25.734,1,31.37c0,5.519,0,33.815,0,33.815s0,5.634,5.636,5.634s72.953,0,72.953,0s5.636,0,5.636-5.634    c0-5.755,0-11.271,0-11.271l-5.636,5.636V65.186z"/>
		<rect x="13.054" y="45.87" width="47.826" height="3.757"/>
		<rect x="13.054" y="56.104" width="15.462" height="3.757"/>
		<rect x="33.21" y="56.104" width="15.462" height="3.757"/>
		<rect x="53.692" y="56.104" width="15.462" height="3.757"/>
		<rect x="13.054" y="34.774" width="14.092" height="3.757"/>
		<rect x="86.638" y="29.823" transform="matrix(0.7072 0.707 -0.707 0.7072 54.7449 -51.2888)" width="5.314" height="21.255"/>
		<polygon points="81.78,51.723 78.023,47.965 76.145,49.843 76.145,53.601 79.901,53.601   "/>
	</g>
</g>
</svg>