<svg xmlns="http://www.w3.org/2000/svg" xmlns:xlink="http://www.w3.org/1999/xlink" version="1.1" id="Layer_1" x="0px" y="0px" width="100px" height="100px" viewBox="0 0 100 100" enable-background="new 0 0 100 100" xml:space="preserve">
<g>
	<path d="M71.64,41.908c-3.467,0-6.278,2.811-6.278,6.278c0,2.17,1.102,4.083,2.777,5.212v-6.001c0-1.36,1.567-2.463,3.501-2.463   s3.502,1.103,3.502,2.463v6.001c1.675-1.129,2.776-3.042,2.776-5.212C77.918,44.719,75.107,41.908,71.64,41.908z M71.64,45.611   c-1.533,0-2.776,1.102-2.776,2.463v19.066c0,1.359,1.243,2.463,2.776,2.463c1.534,0,2.777-1.104,2.777-2.463V48.074   C74.417,46.713,73.174,45.611,71.64,45.611z"/>
	<path d="M50.269,58.391l-1.212-1.018l0.181-0.217l1.222,1.027c1.121-1.359,2.006-2.916,2.635-4.594l-1.484-0.541l0.098-0.266   l1.483,0.541c-0.008,0.021-0.018,0.047-0.025,0.068c0.289-0.805,0.522-1.637,0.681-2.496l-1.56-0.277l0.049-0.277l1.554,0.275   c-0.009,0.051-0.017,0.101-0.023,0.152c0.161-0.911,0.26-1.843,0.26-2.8c0,0.094-0.013,0.186-0.014,0.28h-3.226v-0.562h3.226   c0.001,0.095,0.014,0.188,0.014,0.282c0-0.956-0.099-1.887-0.259-2.796c0.007,0.05,0.015,0.101,0.023,0.152l-1.555,0.272   l-0.049-0.278l1.561-0.274c-0.154-0.835-0.377-1.644-0.655-2.429l-1.486,0.54l-0.096-0.264l1.485-0.54   c0.018,0.044,0.033,0.089,0.049,0.134c-0.323-0.891-0.72-1.745-1.189-2.554c0.028,0.045,0.057,0.09,0.083,0.136l-1.375,0.793   l-0.14-0.243l1.37-0.791c-0.936-1.584-2.124-3-3.526-4.174c0.041,0.039,0.082,0.077,0.125,0.114l-1.021,1.215l-0.215-0.182   l1.027-1.224c-1.359-1.122-2.915-2.007-4.594-2.636l-0.542,1.486l-0.264-0.095l0.542-1.488c-0.785-0.278-1.595-0.502-2.431-0.656   l-0.276,1.564l-0.277-0.048l0.274-1.558c0.025,0.004,0.049,0.008,0.073,0.011c-0.886-0.151-1.791-0.248-2.722-0.248   c0.095,0,0.187,0.013,0.281,0.014v3.224h-0.562v-3.224c0.095-0.001,0.187-0.014,0.281-0.014c-0.903,0-1.784,0.093-2.646,0.236   l0.274,1.556l-0.277,0.048l-0.275-1.561c-0.836,0.154-1.646,0.378-2.431,0.656l0.541,1.487l-0.265,0.095l-0.54-1.485   c0.08-0.03,0.162-0.061,0.243-0.089c-0.911,0.325-1.784,0.723-2.611,1.199c0.028-0.017,0.056-0.035,0.085-0.051l0.794,1.376   l-0.243,0.141l-0.792-1.372c-0.726,0.429-1.423,0.898-2.07,1.431l1.027,1.224l-0.218,0.181l-1.019-1.215   c-0.711,0.608-1.374,1.268-1.969,1.989c0.06-0.073,0.128-0.137,0.189-0.209l1.213,1.019l-0.18,0.216l-1.223-1.026   c-0.558,0.675-1.049,1.406-1.491,2.168c0.021-0.032,0.041-0.064,0.06-0.097l1.37,0.792l-0.142,0.243l-1.375-0.793   c-0.872,1.539-1.493,3.235-1.817,5.037c0.003-0.02,0.005-0.04,0.009-0.059l1.562,0.275L23.801,45.6l-1.555-0.274   c-0.144,0.861-0.235,1.741-0.235,2.644c0-0.096,0.013-0.189,0.014-0.283h3.224v0.565h-3.224c-0.001-0.095-0.014-0.188-0.014-0.282   c0,0.904,0.093,1.786,0.236,2.65l1.555-0.274l0.051,0.278l-1.562,0.275c-0.006-0.029-0.009-0.059-0.014-0.088   c0.159,0.887,0.394,1.746,0.69,2.576c-0.007-0.02-0.014-0.041-0.021-0.061l1.488-0.539l0.095,0.266l-1.485,0.541   c0.297,0.789,0.646,1.555,1.059,2.281l1.374-0.793l0.142,0.244l-1.369,0.789c0.466,0.789,0.99,1.541,1.581,2.236   c-0.051-0.055-0.103-0.107-0.15-0.166L26.9,57.16l0.182,0.219l-1.213,1.016c1.152,1.348,2.524,2.494,4.059,3.4l0.791-1.367   l0.244,0.141l-0.793,1.373c-0.037-0.021-0.073-0.045-0.109-0.066c0.761,0.438,1.56,0.812,2.393,1.123l0.54-1.482l0.265,0.096   l-0.54,1.484c0.826,0.291,1.681,0.518,2.563,0.674c-0.046-0.006-0.091-0.012-0.136-0.02l0.275-1.559l0.279,0.047l-0.275,1.553   c0.862,0.145,1.74,0.236,2.643,0.236c-0.095,0-0.187-0.012-0.282-0.014v-3.227h0.564v3.227c-0.095,0.002-0.187,0.014-0.282,0.014   c0.952,0,1.88-0.1,2.787-0.258c-0.047,0.008-0.095,0.014-0.142,0.021l-0.274-1.555l0.279-0.053l0.275,1.566   c1.78-0.33,3.455-0.949,4.978-1.812l-0.794-1.375l0.244-0.139l0.79,1.367c-0.061,0.037-0.12,0.072-0.179,0.109   c1.685-0.965,3.185-2.217,4.415-3.705C50.39,58.264,50.326,58.324,50.269,58.391z M50.663,55.08l1.373,0.791   c-0.047,0.082-0.1,0.16-0.146,0.24l-1.368-0.791L50.663,55.08z M50.271,37.55c0.062,0.071,0.131,0.136,0.189,0.209l-1.223,1.026   l-0.181-0.218L50.271,37.55z M24.43,43.158l-1.486-0.541c0.031-0.089,0.064-0.177,0.097-0.264l1.487,0.541L24.43,43.158z    M27.857,60.363c-0.073-0.061-0.138-0.127-0.209-0.189l1.019-1.213l0.216,0.182L27.857,60.363z M43.422,63.092l-0.541-1.484   l0.265-0.096l0.54,1.484C43.598,63.029,43.51,63.062,43.422,63.092z M38.067,55.82c-4.335,0-7.85-3.516-7.85-7.85   c0-4.335,3.515-7.852,7.85-7.852s7.851,3.516,7.851,7.852C45.918,52.305,42.402,55.82,38.067,55.82z M45.423,35.519l-0.246-0.141   l0.795-1.375c0.082,0.046,0.16,0.099,0.241,0.147L45.423,35.519z M48.281,60.359l-1.025-1.223l0.216-0.18l1.019,1.213   C48.418,60.232,48.354,60.299,48.281,60.359z"/>
	<path d="M82.484,2.277H19.354C11.698,2.279,5.447,8.216,4.916,15.738c-1.728,1.028-2.889,2.908-2.891,5.066v14.929   c0.002,2.136,1.14,4,2.839,5.035v15.125c-1.699,1.035-2.837,2.9-2.839,5.037v14.93c0.002,2.154,1.159,4.029,2.882,5.059   c0.436,6.184,4.742,11.285,10.516,12.912v2.893h21.732v-2.338h27.529v2.338h21.732V93.83c6.088-1.717,10.555-7.297,10.558-13.934   v-63.13C96.971,8.762,90.487,2.279,82.484,2.277z M5.89,20.804c0.003-1.123,0.911-2.032,2.034-2.034   c1.123,0.002,2.032,0.911,2.034,2.034v14.929c-0.002,1.123-0.911,2.032-2.034,2.034c-1.123-0.002-2.031-0.912-2.034-2.034V20.804z    M5.89,60.93c0.003-1.123,0.911-2.033,2.034-2.037c1.123,0.004,2.032,0.914,2.034,2.037v14.93   c-0.002,1.119-0.911,2.029-2.034,2.033c-1.123-0.004-2.031-0.914-2.034-2.033V60.93z M91.177,79.896   c-0.008,4.799-3.893,8.684-8.692,8.693H19.354c-4.412-0.01-8.041-3.295-8.608-7.553c1.832-1,3.075-2.941,3.076-5.178V60.93   c-0.001-2.271-1.283-4.236-3.161-5.223V40.955c1.878-0.987,3.16-2.953,3.161-5.222V20.804c-0.001-2.235-1.244-4.179-3.076-5.179   c0.567-4.259,4.196-7.544,8.608-7.552h63.131c4.8,0.008,8.685,3.893,8.692,8.694V79.896z"/>
</g>
</svg>