<svg xmlns:dc="http://purl.org/dc/elements/1.1/" xmlns:cc="http://creativecommons.org/ns#" xmlns:rdf="http://www.w3.org/1999/02/22-rdf-syntax-ns#" xmlns:svg="http://www.w3.org/2000/svg" xmlns="http://www.w3.org/2000/svg" xmlns:sodipodi="http://sodipodi.sourceforge.net/DTD/sodipodi-0.dtd" xmlns:inkscape="http://www.inkscape.org/namespaces/inkscape" width="100" height="100" viewBox="0 0 80 80" version="1.1" id="svg2" inkscape:version="0.48.2 r9819" sodipodi:docname="process.svg">
  <metadata id="metadata10">
    <rdf:RDF>
      <cc:Work rdf:about="">
        <dc:format>image/svg+xml</dc:format>
        <dc:type rdf:resource="http://purl.org/dc/dcmitype/StillImage"/>
        <dc:title/>
      </cc:Work>
    </rdf:RDF>
  </metadata>
  <defs id="defs8"/>
  <sodipodi:namedview pagecolor="#ffffff" bordercolor="#666666" borderopacity="1" objecttolerance="10" gridtolerance="10" guidetolerance="10" inkscape:pageopacity="0" inkscape:pageshadow="2" inkscape:window-width="1600" inkscape:window-height="853" id="namedview6" showgrid="true" inkscape:zoom="5.4594614" inkscape:cx="65.256303" inkscape:cy="42.679391" inkscape:window-x="-4" inkscape:window-y="-4" inkscape:window-maximized="1" inkscape:current-layer="svg2" inkscape:snap-grids="false">
    <inkscape:grid type="xygrid" id="grid3807"/>
  </sodipodi:namedview>
  <path style="font-size:medium;font-style:normal;font-variant:normal;font-weight:normal;font-stretch:normal;text-indent:0;text-align:start;text-decoration:none;line-height:normal;letter-spacing:normal;word-spacing:normal;text-transform:none;direction:ltr;block-progression:tb;writing-mode:lr-tb;text-anchor:start;baseline-shift:baseline;color:#000000;fill:#000000;fill-opacity:1;stroke:none;stroke-width:1.6365689;marker:none;visibility:visible;display:inline;overflow:visible;enable-background:accumulate;font-family:Sans;-inkscape-font-specification:Sans" d="m 25.808216,47.763903 c -5.273689,0 -9.567666,4.282574 -9.567666,9.542258 0,5.259684 4.293977,9.523872 9.567666,9.523872 5.273688,0 9.54923,-4.264188 9.54923,-9.523872 0,-5.259684 -4.275542,-9.542258 -9.54923,-9.542258 z m 0,0.956065 c 4.751926,0 8.59062,3.846883 8.59062,8.586193 0,4.73931 -3.838694,8.567807 -8.59062,8.567807 -4.751928,0 -8.609056,-3.828497 -8.609056,-8.567807 0,-4.73931 3.857128,-8.586193 8.609056,-8.586193 z" id="path3769" inkscape:connector-curvature="0"/>
  <path style="font-size:medium;font-style:normal;font-variant:normal;font-weight:normal;font-stretch:normal;text-indent:0;text-align:start;text-decoration:none;line-height:normal;letter-spacing:normal;word-spacing:normal;text-transform:none;direction:ltr;block-progression:tb;writing-mode:lr-tb;text-anchor:start;baseline-shift:baseline;color:#000000;fill:#000000;fill-opacity:1;stroke:none;stroke-width:0.9308331;marker:none;visibility:visible;display:inline;overflow:visible;enable-background:accumulate;font-family:Sans;-inkscape-font-specification:Sans" d="m 3.7755646,20.782054 c -1.1953639,0 -2.1686952,0.973331 -2.1686952,2.168695 l 0,14.145072 c 0,1.195364 0.9733313,2.168695 2.1686952,2.168695 l 14.1450714,0 c 1.195364,0 2.168695,-0.973331 2.168695,-2.168695 l 0,-14.145072 c 0,-1.195364 -0.973331,-2.168695 -2.168695,-2.168695 l -14.1450714,0 z m 0,0.971058 14.1450714,0 c 0.6779,0 1.197637,0.519736 1.197637,1.197637 l 0,14.145072 c 0,0.6779 -0.519737,1.197637 -1.197637,1.197637 l -14.1450714,0 c -0.6779008,0 -1.1976377,-0.519737 -1.1976377,-1.197637 l 0,-14.145072 c 0,-0.677901 0.5197369,-1.197637 1.1976377,-1.197637 z" id="rect2995" inkscape:connector-curvature="0"/>
  <path style="font-size:medium;font-style:normal;font-variant:normal;font-weight:normal;font-stretch:normal;text-indent:0;text-align:start;text-decoration:none;line-height:normal;letter-spacing:normal;word-spacing:normal;text-transform:none;direction:ltr;block-progression:tb;writing-mode:lr-tb;text-anchor:start;baseline-shift:baseline;color:#000000;fill:#000000;fill-opacity:1;stroke:none;stroke-width:0.9308331;marker:none;visibility:visible;display:inline;overflow:visible;enable-background:accumulate;font-family:Sans;-inkscape-font-specification:Sans" d="m 32.713079,20.782054 c -1.195364,0 -2.168695,0.973331 -2.168695,2.168695 l 0,14.145072 c 0,1.195364 0.973331,2.168695 2.168695,2.168695 l 14.145071,0 c 1.195365,0 2.168696,-0.973331 2.168696,-2.168695 l 0,-14.145072 c 0,-1.195364 -0.973331,-2.168695 -2.168696,-2.168695 l -14.145071,0 z m 0,0.971058 14.145071,0 c 0.677901,0 1.197638,0.519736 1.197638,1.197637 l 0,14.145072 c 0,0.6779 -0.519737,1.197637 -1.197638,1.197637 l -14.145071,0 c -0.677901,0 -1.197638,-0.519737 -1.197638,-1.197637 l 0,-14.145072 c 0,-0.677901 0.519737,-1.197637 1.197638,-1.197637 z" id="rect3771" inkscape:connector-curvature="0"/>
  <path style="font-size:medium;font-style:normal;font-variant:normal;font-weight:normal;font-stretch:normal;text-indent:0;text-align:start;text-decoration:none;line-height:normal;letter-spacing:normal;word-spacing:normal;text-transform:none;direction:ltr;block-progression:tb;writing-mode:lr-tb;text-anchor:start;baseline-shift:baseline;color:#000000;fill:#000000;fill-opacity:1;stroke:none;stroke-width:0.9308331;marker:none;visibility:visible;display:inline;overflow:visible;enable-background:accumulate;font-family:Sans;-inkscape-font-specification:Sans" d="m 61.650594,20.782054 c -1.195364,0 -2.201064,0.973331 -2.201064,2.168695 l 0,14.145072 c 0,1.195364 1.0057,2.168695 2.201064,2.168695 l 14.112703,0 c 1.195364,0 2.168695,-0.973331 2.168695,-2.168695 l 0,-14.145072 c 0,-1.195364 -0.973331,-2.168695 -2.168695,-2.168695 l -14.112703,0 z m 0,0.971058 14.112703,0 c 0.6779,0 1.230006,0.519736 1.230006,1.197637 l 0,14.145072 c 0,0.6779 -0.552106,1.197637 -1.230006,1.197637 l -14.112703,0 c -0.677901,0 -1.230007,-0.519737 -1.230007,-1.197637 l 0,-14.145072 c 0,-0.677901 0.552106,-1.197637 1.230007,-1.197637 z" id="rect3773" inkscape:connector-curvature="0"/>
  <path style="font-size:medium;font-style:normal;font-variant:normal;font-weight:normal;font-stretch:normal;text-indent:0;text-align:start;text-decoration:none;line-height:normal;letter-spacing:normal;word-spacing:normal;text-transform:none;direction:ltr;block-progression:tb;writing-mode:lr-tb;text-anchor:start;baseline-shift:baseline;color:#000000;fill:#000000;fill-opacity:1;stroke:none;stroke-width:2;marker:none;visibility:visible;display:inline;overflow:visible;enable-background:accumulate;font-family:Sans;-inkscape-font-specification:Sans" d="m 27.3994,27.269291 -0.692988,0.692984 1.581814,1.581812 -8.466462,0 0,0.964152 8.466462,0 -1.581814,1.581812 0.692988,0.692984 2.410377,-2.41038 0.331424,-0.346493 -0.331424,-0.346492 z" id="path3781" inkscape:connector-curvature="0" sodipodi:nodetypes="cccccccccccc"/>
  <path inkscape:connector-curvature="0" id="path3797" d="m 56.323957,27.269291 -0.692988,0.692984 1.581814,1.581812 -8.466462,0 0,0.964152 8.466462,0 -1.581814,1.581812 0.692988,0.692984 2.410377,-2.41038 0.331434,-0.346493 -0.331434,-0.346492 z" style="font-size:medium;font-style:normal;font-variant:normal;font-weight:normal;font-stretch:normal;text-indent:0;text-align:start;text-decoration:none;line-height:normal;letter-spacing:normal;word-spacing:normal;text-transform:none;direction:ltr;block-progression:tb;writing-mode:lr-tb;text-anchor:start;baseline-shift:baseline;color:#000000;fill:#000000;fill-opacity:1;stroke:none;stroke-width:2;marker:none;visibility:visible;display:inline;overflow:visible;enable-background:accumulate;font-family:Sans;-inkscape-font-specification:Sans" sodipodi:nodetypes="cccccccccccc"/>
  <path style="font-size:medium;font-style:normal;font-variant:normal;font-weight:normal;font-stretch:normal;text-indent:0;text-align:start;text-decoration:none;line-height:normal;letter-spacing:normal;word-spacing:normal;text-transform:none;direction:ltr;block-progression:tb;writing-mode:lr-tb;text-anchor:start;baseline-shift:baseline;color:#000000;fill:#000000;fill-opacity:1;stroke:none;stroke-width:0.93083304;marker:none;visibility:visible;display:inline;overflow:visible;enable-background:accumulate;font-family:Sans;-inkscape-font-specification:Sans" d="m 43.459449,39.944256 0.938689,0 0,-0.971057 -0.938689,0 z m 0,2.880804 0.938689,0 0,-1.909746 -0.938689,0 z m 0,2.913173 0.938689,0 0,-1.942115 -0.938689,0 z m 0,2.880804 0.938689,0 0,-1.942115 -0.938689,0 z m 0,2.880804 0.938689,0 0,-1.909747 -0.938689,0 z m 0,2.913173 0.938689,0 0,-1.942116 -0.938689,0 z m -6.765034,1.909746 1.942115,0 0,-0.971058 -1.942115,0 z m 2.880804,0 1.942115,0 0,-0.971058 -1.942115,0 z m 2.913173,0 1.424217,0 0.485529,0 0,-0.485529 0,-0.485529 -0.485529,0 -0.45316,0 -0.971057,0 z" id="path3799" inkscape:connector-curvature="0"/>
  <path style="font-size:medium;font-style:normal;font-variant:normal;font-weight:normal;font-stretch:normal;text-indent:0;text-align:start;text-decoration:none;line-height:normal;letter-spacing:normal;word-spacing:normal;text-transform:none;direction:ltr;block-progression:tb;writing-mode:lr-tb;text-anchor:start;baseline-shift:baseline;color:#000000;fill:#000000;fill-opacity:1;stroke:none;stroke-width:0.93083304;marker:none;visibility:visible;display:inline;overflow:visible;enable-background:accumulate;font-family:Sans;-inkscape-font-specification:Sans" d="m 38.766004,53.085902 -2.427644,2.427643 -0.323685,0.323686 0.323685,0.356055 2.427644,2.395275 0.679741,-0.67974 -2.07159,-2.07159 2.07159,-2.071589 -0.679741,-0.67974 z" id="path3801" inkscape:connector-curvature="0"/>
  <path style="font-size:medium;font-style:normal;font-variant:normal;font-weight:normal;font-stretch:normal;text-indent:0;text-align:start;text-decoration:none;line-height:normal;letter-spacing:normal;word-spacing:normal;text-transform:none;direction:ltr;block-progression:tb;writing-mode:lr-tb;text-anchor:start;baseline-shift:baseline;color:#000000;fill:#000000;fill-opacity:1;stroke:none;stroke-width:0.9308331;marker:none;visibility:visible;display:inline;overflow:visible;enable-background:accumulate;font-family:Sans;-inkscape-font-specification:Sans" d="m 72.364595,38.973199 0,16.378503 -24.114595,0 0,0.971058 24.600124,0 0.485529,0 0,-0.485529 0,-16.864032 -0.971058,0 z" id="path3803" inkscape:connector-curvature="0"/>
  <path style="font-size:medium;font-style:normal;font-variant:normal;font-weight:normal;font-stretch:normal;text-indent:0;text-align:start;text-decoration:none;line-height:normal;letter-spacing:normal;word-spacing:normal;text-transform:none;direction:ltr;block-progression:tb;writing-mode:lr-tb;text-anchor:start;baseline-shift:baseline;color:#000000;fill:#000000;fill-opacity:1;stroke:none;stroke-width:0.9308331;marker:none;visibility:visible;display:inline;overflow:visible;enable-background:accumulate;font-family:Sans;-inkscape-font-specification:Sans" d="m 50.321589,53.085902 -2.395275,2.427643 -0.356055,0.323686 0.356055,0.356055 2.395275,2.395275 0.67974,-0.67974 -2.071589,-2.07159 2.071589,-2.071589 -0.67974,-0.67974 z" id="path3805" inkscape:connector-curvature="0"/>
</svg>